<svg xmlns="http://www.w3.org/2000/svg" width="960" height="540" viewBox="0 0 960 540">
  <rect width="960" height="540" fill="#f3f6fb"/>
  <rect x="36" y="30" width="600" height="478" rx="8" fill="#ffffff" stroke="#d0d5dd"/>
  <text x="62" y="68" font-family="Segoe UI, Arial" font-size="12" font-weight="700" fill="#667085">PLANNING</text>
  <text x="62" y="100" font-family="Segoe UI, Arial" font-size="25" font-weight="700" fill="#101828">Darsena Sud to Giardino Alto</text>
  <rect x="538" y="54" width="62" height="40" rx="8" fill="#ffffff" stroke="#d0d5dd"/>
  <text x="552" y="82" font-family="Segoe UI, Arial" font-size="22" font-weight="700" fill="#101828">74s</text>
  <rect x="62" y="124" width="548" height="286" rx="8" fill="#f8fafc" stroke="#d0d5dd"/>
  <line x1="238" y1="342" x2="168" y2="342" stroke="#111827" stroke-width="5" stroke-dasharray="12 8" stroke-linecap="round"/>
  <line x1="168" y1="342" x2="168" y2="262" stroke="#111827" stroke-width="5" stroke-dasharray="12 8" stroke-linecap="round"/>
  <line x1="168" y1="262" x2="98" y2="182" stroke="#111827" stroke-width="5" stroke-dasharray="12 8" stroke-linecap="round"/>
  <g fill="#ffffff" stroke="#101828" stroke-width="3">
    <circle cx="238" cy="342" r="12"/>
    <circle cx="168" cy="342" r="12"/>
    <circle cx="168" cy="262" r="12"/>
    <circle cx="98" cy="182" r="12"/>
    <circle cx="310" cy="220" r="12"/>
    <circle cx="452" cy="262" r="12"/>
    <circle cx="532" cy="342" r="12"/>
  </g>
  <g fill="#1f7a8c" stroke="#101828" stroke-width="3">
    <circle cx="238" cy="342" r="12"/>
    <circle cx="168" cy="342" r="12"/>
    <circle cx="168" cy="262" r="12"/>
    <circle cx="98" cy="182" r="12"/>
  </g>
  <text x="76" y="446" font-family="Segoe UI, Arial" font-size="15" fill="#344054">Darsena Sud - Mercato Nuovo - Porta Velaria - Giardino Alto</text>
  <rect x="666" y="30" width="258" height="478" rx="8" fill="#ffffff" stroke="#d0d5dd"/>
  <text x="690" y="72" font-family="Segoe UI, Arial" font-size="22" font-weight="700" fill="#101828">Available Segments</text>
  <text x="690" y="118" font-family="Segoe UI, Arial" font-size="14" fill="#344054">Centrale - Porta Velaria</text>
  <text x="690" y="152" font-family="Segoe UI, Arial" font-size="14" fill="#344054">Porta Velaria - Giardino Alto</text>
  <text x="690" y="186" font-family="Segoe UI, Arial" font-size="14" fill="#344054">Mercato Nuovo - Darsena Sud</text>
  <text x="690" y="220" font-family="Segoe UI, Arial" font-size="14" fill="#344054">Torre Cinerea - Campo dell'Eco</text>
  <rect x="690" y="372" width="210" height="84" rx="8" fill="#1f7a8c"/>
  <text x="732" y="424" font-family="Segoe UI, Arial" font-size="20" font-weight="700" fill="#ffffff">Submit route</text>
</svg>
