<svg xmlns="http://www.w3.org/2000/svg" width="960" height="540" viewBox="0 0 960 540">
  <rect width="960" height="540" fill="#f3f6fb"/>
  <rect x="38" y="34" width="884" height="70" rx="8" fill="#ffffff" stroke="#d0d5dd"/>
  <text x="62" y="62" font-family="Segoe UI, Arial" font-size="12" font-weight="700" fill="#667085">WEB APPLICATIONS I</text>
  <text x="62" y="91" font-family="Segoe UI, Arial" font-size="34" font-weight="700" fill="#101828">Last Race</text>
  <rect x="38" y="132" width="520" height="360" rx="8" fill="#ffffff" stroke="#d0d5dd"/>
  <text x="62" y="170" font-family="Segoe UI, Arial" font-size="24" font-weight="700" fill="#101828">Setup</text>
  <text x="62" y="202" font-family="Segoe UI, Arial" font-size="16" fill="#344054">Study the complete underground network before starting the timer.</text>
  <line x1="280" y1="292" x2="180" y2="292" stroke="#c73535" stroke-width="8" stroke-linecap="round"/>
  <line x1="280" y1="292" x2="440" y2="292" stroke="#2568b8" stroke-width="8" stroke-linecap="round"/>
  <line x1="180" y1="292" x2="230" y2="210" stroke="#c73535" stroke-width="8" stroke-linecap="round"/>
  <line x1="280" y1="292" x2="330" y2="390" stroke="#2f8f51" stroke-width="8" stroke-linecap="round"/>
  <line x1="330" y1="390" x2="440" y2="292" stroke="#d5a21d" stroke-width="8" stroke-linecap="round"/>
  <g fill="#ffffff" stroke="#101828" stroke-width="3">
    <circle cx="280" cy="292" r="13"/>
    <circle cx="180" cy="292" r="11"/>
    <circle cx="440" cy="292" r="13"/>
    <circle cx="230" cy="210" r="11"/>
    <circle cx="330" cy="390" r="11"/>
  </g>
  <rect x="588" y="132" width="334" height="210" rx="8" fill="#ffffff" stroke="#d0d5dd"/>
  <text x="612" y="170" font-family="Segoe UI, Arial" font-size="24" font-weight="700" fill="#101828">General Ranking</text>
  <text x="612" y="214" font-family="Segoe UI, Arial" font-size="18" font-weight="700" fill="#101828">1. Alice Lumen</text>
  <text x="826" y="214" font-family="Segoe UI, Arial" font-size="18" fill="#344054">24 coins</text>
  <text x="612" y="260" font-family="Segoe UI, Arial" font-size="18" font-weight="700" fill="#101828">2. Berke Sayicioglu</text>
  <text x="826" y="260" font-family="Segoe UI, Arial" font-size="18" fill="#344054">20 coins</text>
  <rect x="588" y="368" width="334" height="124" rx="8" fill="#ffffff" stroke="#d0d5dd"/>
  <text x="612" y="412" font-family="Segoe UI, Arial" font-size="20" font-weight="700" fill="#101828">Logged-in setup view</text>
  <text x="612" y="446" font-family="Segoe UI, Arial" font-size="16" fill="#344054">The player can inspect all lines and start a new game.</text>
</svg>
